<?xml version="1.0" encoding="iso-8859-1"?>
<!-- Generator: Adobe Illustrator 19.0.0, SVG Export Plug-In . SVG Version: 6.00 Build 0)  -->
<svg version="1.1" id="Layer_1" xmlns="http://www.w3.org/2000/svg" xmlns:xlink="http://www.w3.org/1999/xlink" x="0px" y="0px"
	 viewBox="0 0 512 512" style="enable-background:new 0 0 512 512;" xml:space="preserve">
<rect x="13.128" y="13.128" style="fill:#EFEFEF;" width="485.744" height="485.744"/>
<path style="fill:#61ACD2;" d="M371.637,265.19h-86.755v-86.755c0-8.64-7.004-15.645-15.645-15.645h-27.788
	c-8.64,0-15.645,7.004-15.645,15.645v86.755h-85.442c-8.64,0-15.644,7.004-15.644,15.645v27.788c0,8.64,7.004,15.645,15.645,15.645
	h85.442v85.442c0,8.64,7.004,15.645,15.645,15.645h27.788c8.64,0,15.645-7.004,15.645-15.645v-85.444h86.755
	c8.64,0,15.645-7.004,15.645-15.645v-27.788C387.282,272.194,380.278,265.19,371.637,265.19z"/>
<rect x="13.128" y="13.128" style="fill:#F4A026;" width="81.395" height="78.769"/>
<rect x="94.523" y="13.128" style="fill:#CA463D;" width="80.082" height="78.769"/>
<rect x="174.605" y="13.128" style="fill:#F4A026;" width="81.395" height="78.769"/>
<rect x="256" y="13.128" style="fill:#CA463D;" width="81.395" height="78.769"/>
<rect x="337.395" y="13.128" style="fill:#F4A026;" width="80.082" height="78.769"/>
<rect x="417.477" y="13.128" style="fill:#CA463D;" width="81.395" height="78.769"/>
<path d="M371.637,252.062H298.01v-73.627c0-15.865-12.908-28.773-28.773-28.773h-27.788c-15.864,0-28.772,12.908-28.772,28.773
	v73.627h-72.314c-15.865,0-28.773,12.908-28.773,28.773v27.787c0,15.865,12.908,28.773,28.773,28.773h72.314v72.314
	c0,15.865,12.908,28.773,28.773,28.773h27.788c15.865,0,28.773-12.908,28.773-28.773v-72.314h73.627
	c15.865,0,28.773-12.908,28.773-28.773v-27.787C400.41,264.969,387.503,252.062,371.637,252.062z M374.154,308.622
	c0,1.388-1.129,2.517-2.517,2.517h-86.755c-7.249,0-13.128,5.879-13.128,13.128v85.442c0,1.388-1.129,2.517-2.517,2.517h-27.788
	c-1.388,0-2.517-1.129-2.517-2.517v-85.442c0-7.249-5.878-13.128-13.128-13.128h-85.442c-1.388,0-2.517-1.129-2.517-2.517v-27.787
	c0-1.388,1.129-2.517,2.517-2.517h85.444c7.251,0,13.128-5.879,13.128-13.128v-86.755c0-1.388,1.129-2.517,2.517-2.517h27.788
	c1.388,0,2.517,1.129,2.517,2.517v86.755c0,7.249,5.879,13.128,13.128,13.128h86.755c1.388,0,2.517,1.129,2.517,2.517v27.787
	H374.154z"/>
<path d="M498.872,0H13.128C5.877,0,0,5.879,0,13.128v485.744C0,506.121,5.877,512,13.128,512h485.744
	c7.249,0,13.128-5.879,13.128-13.128V13.128C512,5.879,506.121,0,498.872,0z M485.744,78.769h-55.138V26.256h55.138V78.769z
	 M404.349,78.769h-53.826V26.256h53.826V78.769z M324.267,78.769h-55.138V26.256h55.138V78.769z M242.872,78.769h-55.138V26.256
	h55.138V78.769z M161.477,78.769h-53.826V26.256h53.826V78.769z M26.256,26.256h55.138v52.513H26.256V26.256z M26.256,485.744
	V105.026h459.487v380.718H26.256z"/>
<g>
</g>
<g>
</g>
<g>
</g>
<g>
</g>
<g>
</g>
<g>
</g>
<g>
</g>
<g>
</g>
<g>
</g>
<g>
</g>
<g>
</g>
<g>
</g>
<g>
</g>
<g>
</g>
<g>
</g>
</svg>
