<?xml version="1.0" encoding="UTF-8" standalone="no"?>
<!-- Generator: Adobe Illustrator 16.0.0, SVG Export Plug-In . SVG Version: 6.00 Build 0)  -->

<svg
   xmlns:dc="http://purl.org/dc/elements/1.1/"
   xmlns:cc="http://creativecommons.org/ns#"
   xmlns:rdf="http://www.w3.org/1999/02/22-rdf-syntax-ns#"
   xmlns:svg="http://www.w3.org/2000/svg"
   xmlns="http://www.w3.org/2000/svg"
   xmlns:sodipodi="http://sodipodi.sourceforge.net/DTD/sodipodi-0.dtd"
   xmlns:inkscape="http://www.inkscape.org/namespaces/inkscape"
   version="1.1"
   id="Layer_1"
   x="0px"
   y="0px"
   width="60.73"
   height="60.73"
   viewBox="0 0 60.729998 60.729998"
   xml:space="preserve"
   inkscape:version="0.91 r13725"
   sodipodi:docname="inst.svg"><metadata
     id="metadata5793"><rdf:RDF><cc:Work
         rdf:about=""><dc:format>image/svg+xml</dc:format><dc:type
           rdf:resource="http://purl.org/dc/dcmitype/StillImage" /><dc:title></dc:title></cc:Work></rdf:RDF></metadata><defs
     id="defs5791" /><sodipodi:namedview
     pagecolor="#ffffff"
     bordercolor="#666666"
     borderopacity="1"
     objecttolerance="10"
     gridtolerance="10"
     guidetolerance="10"
     inkscape:pageopacity="0"
     inkscape:pageshadow="2"
     inkscape:window-width="1280"
     inkscape:window-height="705"
     id="namedview5789"
     showgrid="false"
     inkscape:zoom="5.96"
     inkscape:cx="84.531502"
     inkscape:cy="44.263045"
     inkscape:window-x="0"
     inkscape:window-y="1"
     inkscape:window-maximized="1"
     inkscape:current-layer="Layer_1" /><g
     id="g5751"
     transform="matrix(0.35700927,0,0,0.35705729,0,0.36418048)"><path
       d="M 122.406,0 46.654,0 C 20.929,0 0,20.93 0,46.655 l 0,75.752 c 0,25.726 20.929,46.655 46.654,46.655 l 75.752,0 c 25.727,0 46.656,-20.93 46.656,-46.655 l 0,-75.752 C 169.063,20.93 148.133,0 122.406,0 Z m 31.657,122.407 c 0,17.455 -14.201,31.655 -31.656,31.655 l -75.753,0 C 29.2,154.063 15,139.862 15,122.407 L 15,46.655 C 15,29.201 29.2,15 46.654,15 l 75.752,0 c 17.455,0 31.656,14.201 31.656,31.655 l 0,75.752 z"
       id="path5753"
       inkscape:connector-curvature="0" /><path
       d="m 84.531,40.97 c -24.021,0 -43.563,19.542 -43.563,43.563 0,24.02 19.542,43.561 43.563,43.561 24.021,0 43.563,-19.541 43.563,-43.561 0,-24.021 -19.542,-43.563 -43.563,-43.563 z m 0,72.123 c -15.749,0 -28.563,-12.812 -28.563,-28.561 0,-15.75 12.813,-28.563 28.563,-28.563 15.75,0 28.563,12.813 28.563,28.563 0,15.749 -12.814,28.561 -28.563,28.561 z"
       id="path5755"
       inkscape:connector-curvature="0" /><path
       d="m 129.921,28.251 c -2.89,0 -5.729,1.17 -7.77,3.22 -2.051,2.04 -3.23,4.88 -3.23,7.78 0,2.891 1.18,5.73 3.23,7.78 2.04,2.04 4.88,3.22 7.77,3.22 2.9,0 5.73,-1.18 7.78,-3.22 2.05,-2.05 3.22,-4.89 3.22,-7.78 0,-2.9 -1.17,-5.74 -3.22,-7.78 -2.04,-2.05 -4.88,-3.22 -7.78,-3.22 z"
       id="path5757"
       inkscape:connector-curvature="0" /></g><g
     id="g5759"
     transform="translate(0,-108.333)" /><g
     id="g5761"
     transform="translate(0,-108.333)" /><g
     id="g5763"
     transform="translate(0,-108.333)" /><g
     id="g5765"
     transform="translate(0,-108.333)" /><g
     id="g5767"
     transform="translate(0,-108.333)" /><g
     id="g5769"
     transform="translate(0,-108.333)" /><g
     id="g5771"
     transform="translate(0,-108.333)" /><g
     id="g5773"
     transform="translate(0,-108.333)" /><g
     id="g5775"
     transform="translate(0,-108.333)" /><g
     id="g5777"
     transform="translate(0,-108.333)" /><g
     id="g5779"
     transform="translate(0,-108.333)" /><g
     id="g5781"
     transform="translate(0,-108.333)" /><g
     id="g5783"
     transform="translate(0,-108.333)" /><g
     id="g5785"
     transform="translate(0,-108.333)" /><g
     id="g5787"
     transform="translate(0,-108.333)" /></svg>