<?xml version="1.0" encoding="UTF-8" standalone="no"?>
<!-- Generator: Adobe Illustrator 16.0.0, SVG Export Plug-In . SVG Version: 6.00 Build 0)  -->

<svg
   xmlns:dc="http://purl.org/dc/elements/1.1/"
   xmlns:cc="http://creativecommons.org/ns#"
   xmlns:rdf="http://www.w3.org/1999/02/22-rdf-syntax-ns#"
   xmlns:svg="http://www.w3.org/2000/svg"
   xmlns="http://www.w3.org/2000/svg"
   xmlns:sodipodi="http://sodipodi.sourceforge.net/DTD/sodipodi-0.dtd"
   xmlns:inkscape="http://www.inkscape.org/namespaces/inkscape"
   version="1.1"
   id="Capa_1"
   x="0px"
   y="0px"
   width="60.73"
   height="60.73"
   viewBox="0 0 60.73 60.73"
   xml:space="preserve"
   inkscape:version="0.91 r13725"
   sodipodi:docname="mob.svg"><metadata
     id="metadata6103"><rdf:RDF><cc:Work
         rdf:about=""><dc:format>image/svg+xml</dc:format><dc:type
           rdf:resource="http://purl.org/dc/dcmitype/StillImage" /><dc:title></dc:title></cc:Work></rdf:RDF></metadata><defs
     id="defs6101" /><sodipodi:namedview
     pagecolor="#ffffff"
     bordercolor="#666666"
     borderopacity="1"
     objecttolerance="10"
     gridtolerance="10"
     guidetolerance="10"
     inkscape:pageopacity="0"
     inkscape:pageshadow="2"
     inkscape:window-width="1280"
     inkscape:window-height="705"
     id="namedview6099"
     showgrid="false"
     showborder="true"
     inkscape:zoom="4.7677986"
     inkscape:cx="17.5"
     inkscape:cy="17.5"
     inkscape:window-x="0"
     inkscape:window-y="1"
     inkscape:window-maximized="1"
     inkscape:current-layer="Capa_1" /><g
     id="g6065"
     transform="matrix(1.7014729,0,0,1.7310951,0.8553976,0.14167076)"><path
       d="M 25.302,0 9.698,0 C 8.398,0 7.334,1.063 7.334,2.364 l 0,30.271 C 7.334,33.936 8.398,35 9.698,35 l 15.604,0 c 1.3,0 2.364,-1.062 2.364,-2.364 l 0,-30.272 C 27.666,1.063 26.602,0 25.302,0 Z m -10.298,1.704 4.992,0 c 0.158,0 0.286,0.128 0.286,0.287 0,0.158 -0.128,0.286 -0.286,0.286 l -4.992,0 c -0.158,0 -0.286,-0.128 -0.286,-0.286 0,-0.159 0.128,-0.287 0.286,-0.287 z M 17.5,33.818 c -0.653,0 -1.182,-0.529 -1.182,-1.183 0,-0.654 0.529,-1.182 1.182,-1.182 0.653,0 1.182,0.528 1.182,1.182 0,0.654 -0.529,1.183 -1.182,1.183 z m 8.521,-3.193 -17.042,0 0,-26.876 17.042,0 0,26.876 z"
       id="path6067"
       inkscape:connector-curvature="0" /></g><g
     id="g6069"
     transform="translate(0,25.73)" /><g
     id="g6071"
     transform="translate(0,25.73)" /><g
     id="g6073"
     transform="translate(0,25.73)" /><g
     id="g6075"
     transform="translate(0,25.73)" /><g
     id="g6077"
     transform="translate(0,25.73)" /><g
     id="g6079"
     transform="translate(0,25.73)" /><g
     id="g6081"
     transform="translate(0,25.73)" /><g
     id="g6083"
     transform="translate(0,25.73)" /><g
     id="g6085"
     transform="translate(0,25.73)" /><g
     id="g6087"
     transform="translate(0,25.73)" /><g
     id="g6089"
     transform="translate(0,25.73)" /><g
     id="g6091"
     transform="translate(0,25.73)" /><g
     id="g6093"
     transform="translate(0,25.73)" /><g
     id="g6095"
     transform="translate(0,25.73)" /><g
     id="g6097"
     transform="translate(0,25.73)" /></svg>